<svg version="1" xmlns="http://www.w3.org/2000/svg" width="160" height="160" viewBox="0 0 120.000000 120.000000"><path d="M19 .9C12.1 3.1 6 8.2 2.4 15 .6 18.3.5 21.4.5 60c0 40.6 0 41.6 2.2 45.5 2.5 4.7 7.4 9.5 12.3 12.1 3.3 1.8 6.4 1.9 45 1.9 40.6 0 41.6 0 45.5-2.2 4.7-2.5 9.5-7.4 12.1-12.3 1.8-3.3 1.9-6.4 1.9-45s-.1-41.7-1.9-45c-2.6-4.9-7.4-9.8-12.1-12.3-3.9-2.1-5.1-2.2-44-2.4-22-.1-41.1.2-42.5.6zM95.4 35c2.5 2.7 4.6 5.5 4.6 6.2C100 43.4 52.7 90 50.5 90 48.2 90 20 62.3 20 60.1 20 58 30.2 48 32.3 48c1.1 0 5.6 3.5 10.4 8.2l8.4 8.2 17.2-17.2c20-20 19.9-19.9 27.1-12.2z"/></svg>